<svg width="32" height="32" viewBox="0 0 32 32" fill="none" xmlns="http://www.w3.org/2000/svg">
  <path d="M16 0C7.163 0 0 7.163 0 16C0 24.837 7.163 32 16 32C24.837 32 32 24.837 32 16C32 7.163 24.837 0 16 0ZM10.44 14.44L16 8.88L21.56 14.44L24.96 11.04L16 2.08L7.04 11.04L10.44 14.44ZM5.12 12.96L8.52 16.36L5.12 19.76L1.72 16.36L5.12 12.96ZM10.44 18.28L16 23.84L21.56 18.28L24.96 21.68L16 30.64L7.04 21.68L10.44 18.28ZM26.88 19.76L23.48 16.36L26.88 12.96L30.28 16.36L26.88 19.76ZM16 12.8L19.2 16L16 19.2L12.8 16L16 12.8Z" fill="#F0B90B"/>
</svg>